<svg xmlns="http://www.w3.org/2000/svg" viewBox="0 0 88.49 88.49"><g fill="#595bd4" class="color000000 svgShape" data-name="Layer 2"><g class="color000000 svgShape" data-name="Layer 1"><rect width="84.49" height="84.49" x="2" y="2" fill="none" stroke="#167ffc" stroke-miterlimit="10" stroke-width="4" class="colorStroke052ed8 svgStroke" rx="6.09"/><path fill-rule="evenodd" d="M42.65 53.88c0 .14-.08.26-.12.37-1.78 7-2 8.57-3.82 11.83a37.3 37.3 0 0 1-3 4.41c-.12.16-.24.37-.48.32s-.29-.3-.32-.52a37.28 37.28 0 0 1-.39-6.42c.09-2.8.44-3.76 4-18.94a1.07 1.07 0 0 0-.08-.64 10.59 10.59 0 0 1-.28-7.09c1.63-5.18 7.5-5.58 8.53-1.31.63 2.65-1 6.11-2.32 11.22-1.07 4.22 3.9 7.22 8.14 4.14 3.92-2.84 5.43-9.65 5.15-14.47-.57-9.62-11.12-11.7-17.81-8.6-7.67 3.55-9.41 13-5.95 17.4.44.55.78.89.63 1.45-.22.87-.42 1.75-.66 2.61a.93.93 0 0 1-1.37.62 7.9 7.9 0 0 1-3.2-2.4c-2.94-3.65-3.78-10.85.11-16.95 4.3-6.76 12.32-9.49 19.63-8.66 8.74 1 14.27 7 15.3 13.74.47 3.08.13 10.69-4.2 16.07-5 6.18-13.06 6.59-16.79 2.8-.19-.29-.42-.63-.7-.98Z" class="color000000 svgShape"/></g></g></svg>